HIERARCHY
ROOT Hips
{
  OFFSET -12.3856 103.271 0.898128
  CHANNELS 6 Xposition Yposition Zposition Zrotation Xrotation Yrotation
  JOINT Spine
  {
    OFFSET 0 10.1816 0.1315
    CHANNELS 6 Xposition Yposition Zposition Zrotation Xrotation Yrotation
    JOINT Spine1
    {
      OFFSET 0 10.0835 -1.0008
      CHANNELS 6 Xposition Yposition Zposition Zrotation Xrotation Yrotation
      JOINT Spine2
      {
        OFFSET 0 9.1 -1.3734
        CHANNELS 6 Xposition Yposition Zposition Zrotation Xrotation Yrotation
        JOINT Neck
        {
          OFFSET 0 16.6717 -2.5162
          CHANNELS 6 Xposition Yposition Zposition Zrotation Xrotation Yrotation
          JOINT Head
          {
            OFFSET 0 9.6179 1.685
            CHANNELS 6 Xposition Yposition Zposition Zrotation Xrotation Yrotation
            JOINT HeadTop_End
            {
              OFFSET 0 17.8152 2.585
              CHANNELS 6 Xposition Yposition Zposition Zrotation Xrotation Yrotation
              End Site
              {
                OFFSET 0 0 0
              }
            }
            JOINT LeftEye
            {
              OFFSET 3.0676 6.4095 9.2836
              CHANNELS 6 Xposition Yposition Zposition Zrotation Xrotation Yrotation
              End Site
              {
                OFFSET 0 0 0
              }
            }
            JOINT RightEye
            {
              OFFSET -3.0676 6.4095 9.2835
              CHANNELS 6 Xposition Yposition Zposition Zrotation Xrotation Yrotation
              End Site
              {
                OFFSET 0 0 0
              }
            }
          }
        }
        JOINT LeftShoulder
        {
          OFFSET 4.5704 10.946 -2.628
          CHANNELS 6 Xposition Yposition Zposition Zrotation Xrotation Yrotation
          JOINT LeftArm
          {
            OFFSET 10.5924 -0.5246 -2.2321
            CHANNELS 6 Xposition Yposition Zposition Zrotation Xrotation Yrotation
            JOINT LeftForeArm
            {
              OFFSET 27.8415 -0.0001 0
              CHANNELS 6 Xposition Yposition Zposition Zrotation Xrotation Yrotation
              JOINT LeftHand
              {
                OFFSET 28.3288 0 0
                CHANNELS 6 Xposition Yposition Zposition Zrotation Xrotation Yrotation
                JOINT LeftHandThumb1
                {
                  OFFSET 2.4661 -1.575 2.6824
                  CHANNELS 6 Xposition Yposition Zposition Zrotation Xrotation Yrotation
                  JOINT LeftHandThumb2
                  {
                    OFFSET 3.2298 -1.8647 1.8647
                    CHANNELS 6 Xposition Yposition Zposition Zrotation Xrotation Yrotation
                    JOINT LeftHandThumb3
                    {
                      OFFSET 2.6526 -1.5315 1.5315
                      CHANNELS 6 Xposition Yposition Zposition Zrotation Xrotation Yrotation
                      End Site
                      {
                        OFFSET 1.9546 -1.1285 1.1285
                      }
                    }
                  }
                }
                JOINT LeftHandIndex1
                {
                  OFFSET 9.1093 -0.5171 2.2601
                  CHANNELS 6 Xposition Yposition Zposition Zrotation Xrotation Yrotation
                  JOINT LeftHandIndex2
                  {
                    OFFSET 3.6764 0 0
                    CHANNELS 6 Xposition Yposition Zposition Zrotation Xrotation Yrotation
                    JOINT LeftHandIndex3
                    {
                      OFFSET 2.8831 0 0
                      CHANNELS 6 Xposition Yposition Zposition Zrotation Xrotation Yrotation
                      End Site
                      {
                        OFFSET 2.3927 0 0
                      }
                    }
                  }
                }
                JOINT LeftHandMiddle1
                {
                  OFFSET 9.5334 0 0
                  CHANNELS 6 Xposition Yposition Zposition Zrotation Xrotation Yrotation
                  JOINT LeftHandMiddle2
                  {
                    OFFSET 3.6982 0 0
                    CHANNELS 6 Xposition Yposition Zposition Zrotation Xrotation Yrotation
                    JOINT LeftHandMiddle3
                    {
                      OFFSET 2.9509 0 0
                      CHANNELS 6 Xposition Yposition Zposition Zrotation Xrotation Yrotation
                      End Site
                      {
                        OFFSET 2.8339 0 0
                      }
                    }
                  }
                }
                JOINT LeftHandRing1
                {
                  OFFSET 9.1045 -0.0439 -1.8651
                  CHANNELS 6 Xposition Yposition Zposition Zrotation Xrotation Yrotation
                  JOINT LeftHandRing2
                  {
                    OFFSET 3.154 0 0
                    CHANNELS 6 Xposition Yposition Zposition Zrotation Xrotation Yrotation
                    JOINT LeftHandRing3
                    {
                      OFFSET 2.9377 0 0
                      CHANNELS 6 Xposition Yposition Zposition Zrotation Xrotation Yrotation
                      End Site
                      {
                        OFFSET 2.6475 0 0
                      }
                    }
                  }
                }
                JOINT LeftHandPinky1
                {
                  OFFSET 8.0778 -0.4887 -3.8061
                  CHANNELS 6 Xposition Yposition Zposition Zrotation Xrotation Yrotation
                  JOINT LeftHandPinky2
                  {
                    OFFSET 3.6 0 0
                    CHANNELS 6 Xposition Yposition Zposition Zrotation Xrotation Yrotation
                    JOINT LeftHandPinky3
                    {
                      OFFSET 2.1142 0 0
                      CHANNELS 6 Xposition Yposition Zposition Zrotation Xrotation Yrotation
                      End Site
                      {
                        OFFSET 1.9757 0 0
                      }
                    }
                  }
                }
              }
            }
          }
        }
        JOINT RightShoulder
        {
          OFFSET -4.57 10.9462 -2.628
          CHANNELS 6 Xposition Yposition Zposition Zrotation Xrotation Yrotation
          JOINT RightArm
          {
            OFFSET -10.5928 -0.5248 -2.2321
            CHANNELS 6 Xposition Yposition Zposition Zrotation Xrotation Yrotation
            JOINT RightForeArm
            {
              OFFSET -27.8415 0 0
              CHANNELS 6 Xposition Yposition Zposition Zrotation Xrotation Yrotation
              JOINT RightHand
              {
                OFFSET -28.3288 0 0.0001
                CHANNELS 6 Xposition Yposition Zposition Zrotation Xrotation Yrotation
                JOINT RightHandPinky1
                {
                  OFFSET -8.0767 -0.4885 -3.806
                  CHANNELS 6 Xposition Yposition Zposition Zrotation Xrotation Yrotation
                  JOINT RightHandPinky2
                  {
                    OFFSET -3.6 0 0.0001
                    CHANNELS 6 Xposition Yposition Zposition Zrotation Xrotation Yrotation
                    JOINT RightHandPinky3
                    {
                      OFFSET -2.1142 0 0
                      CHANNELS 6 Xposition Yposition Zposition Zrotation Xrotation Yrotation
                      End Site
                      {
                        OFFSET -1.9757 0 0
                      }
                    }
                  }
                }
                JOINT RightHandRing1
                {
                  OFFSET -9.1036 -0.0439 -1.8651
                  CHANNELS 6 Xposition Yposition Zposition Zrotation Xrotation Yrotation
                  JOINT RightHandRing2
                  {
                    OFFSET -3.154 0 0
                    CHANNELS 6 Xposition Yposition Zposition Zrotation Xrotation Yrotation
                    JOINT RightHandRing3
                    {
                      OFFSET -2.9377 0 0
                      CHANNELS 6 Xposition Yposition Zposition Zrotation Xrotation Yrotation
                      End Site
                      {
                        OFFSET -2.6475 0 0
                      }
                    }
                  }
                }
                JOINT RightHandMiddle1
                {
                  OFFSET -9.5325 0 0
                  CHANNELS 6 Xposition Yposition Zposition Zrotation Xrotation Yrotation
                  JOINT RightHandMiddle2
                  {
                    OFFSET -3.6982 0 0
                    CHANNELS 6 Xposition Yposition Zposition Zrotation Xrotation Yrotation
                    JOINT RightHandMiddle3
                    {
                      OFFSET -2.9509 0 0
                      CHANNELS 6 Xposition Yposition Zposition Zrotation Xrotation Yrotation
                      End Site
                      {
                        OFFSET -2.8339 0 0.0001
                      }
                    }
                  }
                }
                JOINT RightHandIndex1
                {
                  OFFSET -9.1083 -0.5168 2.2601
                  CHANNELS 6 Xposition Yposition Zposition Zrotation Xrotation Yrotation
                  JOINT RightHandIndex2
                  {
                    OFFSET -3.6764 0 0
                    CHANNELS 6 Xposition Yposition Zposition Zrotation Xrotation Yrotation
                    JOINT RightHandIndex3
                    {
                      OFFSET -2.8831 0 0
                      CHANNELS 6 Xposition Yposition Zposition Zrotation Xrotation Yrotation
                      End Site
                      {
                        OFFSET -2.3927 0 0
                      }
                    }
                  }
                }
                JOINT RightHandThumb1
                {
                  OFFSET -2.4648 -1.5727 2.6826
                  CHANNELS 6 Xposition Yposition Zposition Zrotation Xrotation Yrotation
                  JOINT RightHandThumb2
                  {
                    OFFSET -3.2298 -1.8647 1.8647
                    CHANNELS 6 Xposition Yposition Zposition Zrotation Xrotation Yrotation
                    JOINT RightHandThumb3
                    {
                      OFFSET -2.6526 -1.5314 1.5314
                      CHANNELS 6 Xposition Yposition Zposition Zrotation Xrotation Yrotation
                      End Site
                      {
                        OFFSET -1.9546 -1.1285 1.1285
                      }
                    }
                  }
                }
              }
            }
          }
        }
      }
    }
  }
  JOINT LeftUpLeg
  {
    OFFSET 8.2078 -6.7517 -1.5996
    CHANNELS 6 Xposition Yposition Zposition Zrotation Xrotation Yrotation
    JOINT LeftLeg
    {
      OFFSET 0 -44.3705 0.2846
      CHANNELS 6 Xposition Yposition Zposition Zrotation Xrotation Yrotation
      JOINT LeftFoot
      {
        OFFSET 0 -44.4279 -2.9822
        CHANNELS 6 Xposition Yposition Zposition Zrotation Xrotation Yrotation
        JOINT LeftToeBase
        {
          OFFSET 0 -8.7287 10.7106
          CHANNELS 6 Xposition Yposition Zposition Zrotation Xrotation Yrotation
          End Site
          {
            OFFSET 0 -0.0007 9.2781
          }
        }
      }
    }
  }
  JOINT RightUpLeg
  {
    OFFSET -8.2078 -6.7517 -1.5996
    CHANNELS 6 Xposition Yposition Zposition Zrotation Xrotation Yrotation
    JOINT RightLeg
    {
      OFFSET 0 -44.3705 0.2862
      CHANNELS 6 Xposition Yposition Zposition Zrotation Xrotation Yrotation
      JOINT RightFoot
      {
        OFFSET 0 -44.4277 -2.9838
        CHANNELS 6 Xposition Yposition Zposition Zrotation Xrotation Yrotation
        JOINT RightToeBase
        {
          OFFSET 0 -8.7287 10.7106
          CHANNELS 6 Xposition Yposition Zposition Zrotation Xrotation Yrotation
          End Site
          {
            OFFSET 0 -0.0007 9.2781
          }
        }
      }
    }
  }
}
MOTION
Frames:	4
Frame Time:	0.0333333
-11.3261 102.603 1.34087 9.02214 8.22161 1.63306 -8.88178e-016 10.1816 0.1315 -1.6157 -2.28914 -0.595927 1.77636e-015 10.0835 -1.0008 -1.12893 -4.61486 -1.11768 3.21965e-015 9.1 -1.3734 -1.12795 -4.62216 -1.08686 4.44089e-016 16.6717 -2.5162 1.30804 1.78935 1.20643 -4.44089e-016 9.6179 1.685 -10.7887 14.3574 11.9242 -3.55271e-015 17.8152 2.585 -3.97569e-016 -1.59028e-015 1.59028e-015 3.0676 6.4095 9.2836 -3.97569e-016 -1.59028e-015 1.59028e-015 -3.0676 6.4095 9.2835 -3.97569e-016 -1.59028e-015 1.59028e-015 4.5704 10.946 -2.628 -7.91063 -1.07336 7.58289 10.5924 -0.5246 -2.2321 -63.6981 29.4477 6.92588 27.8415 -0.0001 0 -0.000197918 4.12638e-007 -13.6047 28.3288 -1.42109e-014 0 14.8603 -5.96548 -9.58389 2.4661 -1.575 2.6824 6.13846 -1.1463 3.8272 3.2298 -1.8647 1.8647 0.739153 4.04323 7.89737 2.6526 -1.5315 1.5315 2.53742 -0.508497 1.5998 9.1093 -0.5171 2.2601 -2.64834e-031 -4.77083e-015 -3.18055e-015 3.6764 0 0 6.36111e-015 -6.36111e-015 3.18055e-015 2.8831 0 -3.55271e-015 2.38542e-015 -1.59028e-015 6.36111e-015 9.5334 0 4.44089e-016 0.0159788 -1.25373e-006 -0.00192074 3.6982 0 3.10862e-015 -0.0159768 1.33039e-006 0.00192016 2.9509 -1.42109e-014 0 -5.56597e-015 -3.18055e-015 -3.18055e-015 9.1045 -0.0439 -1.8651 -2.64834e-031 -4.77083e-015 -3.18055e-015 3.154 -1.42109e-014 -4.44089e-016 6.36111e-015 -6.36111e-015 3.18055e-015 2.9377 0 2.22045e-016 2.38542e-015 -1.59028e-015 6.36111e-015 8.0778 -0.4887 -3.8061 0.507966 0.0179778 4.05448 3.6 0 8.88178e-016 -0.507955 0.0179837 -4.05448 2.1142 0 2.22045e-015 -7.95139e-015 -3.18055e-015 -3.18055e-015 -4.57 10.9462 -2.628 7.44558 -1.25065 -11.8061 -10.5928 -0.5248 -2.2321 25.003 -50.6357 47.6223 -27.8415 1.42109e-014 -1.42109e-014 -5.14344e-006 8.59879e-006 28.8138 -28.3288 0 0.0001 -35.5919 -21.8571 2.6314 -8.0767 -0.4885 -3.806 1.29442e-006 3.26914e-006 -0.00159248 -3.6 7.10543e-015 0.0001 2.63041e-005 -4.23131e-006 0.00158976 -2.1142 0 0 -1.68083e-006 1.19084e-006 1.72413e-007 -9.1036 -0.0439 -1.8651 -5.90794e-007 5.85061e-007 -2.42313e-006 -3.154 0 -7.10543e-015 5.90794e-007 -5.85061e-007 2.42313e-006 -2.9377 0 1.42109e-014 -5.90794e-007 5.85061e-007 -2.42313e-006 -9.5325 0 0 -5.90794e-007 5.85061e-007 -2.42313e-006 -3.6982 0 -1.42109e-014 1.79173e-005 -4.78508e-006 1.00119e-005 -2.9509 0 -7.10543e-015 7.56683e-007 7.93831e-006 -0.00202655 -9.1083 -0.5168 2.2601 -5.90794e-007 5.85061e-007 -2.42313e-006 -3.6764 0 1.42109e-014 5.90794e-007 -5.85061e-007 2.42313e-006 -2.8831 0 7.10543e-015 -5.90794e-007 5.85061e-007 -2.42313e-006 -2.4648 -1.5727 2.6826 -6.58323 -1.43648 -3.76368 -3.2298 -1.8647 1.8647 -0.219587 4.67208 -8.61486 -2.6526 -1.5314 1.5314 -2.09688 -1.27754 0.0886299 8.2078 -6.7517 -1.5996 8.81167 -10.7776 24.1858 0 -44.3705 0.2846 3.76384 3.85189 -4.6589 0 -44.4279 -2.9822 -21.9755 38.4525 8.54486 3.55271e-015 -8.7287 10.7106 -2.82126 -32.7659 -1.42161 -8.2078 -6.7517 -1.5996 -13.3772 -8.27148 -6.20383 -3.55271e-015 -44.3705 0.2862 -7.2378 13.7916 -8.67146 0 -44.4277 -2.9838 13.2229 -10.8462 -0.452042 -3.55271e-015 -8.7287 10.7106 2.67805e-006 -0.868595 2.62314e-006 
-11.1132 102.796 0.850363 9.75729 7.3326 1.43698 3.55271e-015 10.1816 0.1315 -1.71462 -1.64575 -0.544693 4.44089e-016 10.0835 -1.0008 -1.78476 -3.31668 -1.06744 -7.77156e-016 9.1 -1.3734 -1.78448 -3.3224 -1.04914 -2.66454e-015 16.6717 -2.5162 2.05286 2.10272 1.06613 -2.10942e-015 9.6179 1.685 -10.5142 10.5354 12.0926 3.55271e-015 17.8152 2.585 -7.95139e-016 -1.59028e-015 -0 3.0676 6.4095 9.2836 -7.95139e-016 -1.59028e-015 -0 -3.0676 6.4095 9.2835 -7.95139e-016 -1.59028e-015 -0 4.5704 10.946 -2.628 -7.6234 -0.986651 7.3153 10.5924 -0.5246 -2.2321 -62.7254 34.1177 5.94731 27.8415 -0.0001 -7.10543e-015 -0.000216065 5.08721e-006 -13.3765 28.3288 7.10543e-015 -3.55271e-015 15.465 -8.23912 -7.05621 2.4661 -1.575 2.6824 6.13846 -1.1463 3.8272 3.2298 -1.8647 1.8647 0.739153 4.04323 7.89737 2.6526 -1.5315 1.5315 2.53742 -0.508497 1.5998 9.1093 -0.5171 2.2601 -2.38542e-015 -3.18055e-015 6.36111e-015 3.6764 1.42109e-014 1.77636e-015 -6.36111e-015 0 6.36111e-015 2.8831 -1.42109e-014 -4.44089e-016 -5.56597e-015 3.18055e-015 9.54166e-015 9.5334 -1.42109e-014 -8.88178e-016 0.0159788 -1.25373e-006 -0.00192074 3.6982 1.42109e-014 0 -0.0159768 1.33039e-006 0.00192016 2.9509 -1.42109e-014 1.77636e-015 -7.95139e-016 -3.18055e-015 -0 9.1045 -0.0439 -1.8651 -2.38542e-015 -3.18055e-015 6.36111e-015 3.154 0 -8.88178e-016 -6.36111e-015 0 6.36111e-015 2.9377 0 8.88178e-016 -5.56597e-015 3.18055e-015 9.54166e-015 8.0778 -0.4887 -3.8061 0.507966 0.0179778 4.05448 3.6 0 1.77636e-015 -0.507955 0.0179837 -4.05448 2.1142 -1.42109e-014 3.55271e-015 -4.77083e-015 -3.18055e-015 -0 -4.57 10.9462 -2.628 7.29744 -1.15972 -11.2723 -10.5928 -0.5248 -2.2321 10.3125 -48.4199 38.5436 -27.8415 0 -1.42109e-014 -8.49418e-008 -1.29521e-005 26.5458 -28.3288 1.42109e-014 0.0001 -2.53722 -31.3422 10.6484 -8.0767 -0.4885 -3.806 -5.18833e-007 1.27609e-006 -0.00159375 -3.6 -7.10543e-015 0.0001 2.63041e-005 -4.23131e-006 0.00158976 -2.1142 0 -7.10543e-015 -1.68083e-006 1.19084e-006 1.72413e-007 -9.1036 -0.0439 -1.8651 -2.70352e-031 -5.56597e-015 -2.78299e-015 -3.154 0 7.10543e-015 5.90794e-007 -5.85061e-007 2.42313e-006 -2.9377 7.10543e-015 1.42109e-014 -5.90794e-007 5.85061e-007 -2.42313e-006 -9.5325 1.42109e-014 1.42109e-014 -2.70352e-031 -5.56597e-015 -2.78299e-015 -3.6982 0 -1.42109e-014 1.79173e-005 -4.78508e-006 1.00119e-005 -2.9509 0 7.10543e-015 7.56683e-007 7.93831e-006 -0.00202655 -9.1083 -0.5168 2.2601 -2.70352e-031 -5.56597e-015 -2.78299e-015 -3.6764 7.10543e-015 0 5.90794e-007 -5.85061e-007 2.42313e-006 -2.8831 0 -1.42109e-014 -5.90794e-007 5.85061e-007 -2.42313e-006 -2.4648 -1.5727 2.6826 -6.58323 -1.43647 -3.76369 -3.2298 -1.8647 1.8647 -0.219587 4.67208 -8.61486 -2.6526 -1.5314 1.5314 -2.09688 -1.27754 0.0886299 8.2078 -6.7517 -1.5996 7.78401 -9.76999 24.8864 -7.10543e-015 -44.3705 0.2846 3.53008 2.99389 -4.98492 0 -44.4279 -2.9822 -21.0932 39.7377 8.50013 3.55271e-015 -8.7287 10.7106 -3.34906 -32.9987 -1.70024 -8.2078 -6.7517 -1.5996 -14.0367 -7.537 -6.57304 -3.55271e-015 -44.3705 0.2862 -7.77624 13.2926 -8.67057 -7.10543e-015 -44.4277 -2.9838 13.6027 -10.0989 -0.0623181 3.55271e-015 -8.7287 10.7106 -1.86535e-006 -0.950698 7.47593e-006 
-10.9756 102.996 0.34983 11.1311 6.32879 0.478872 -1.77636e-015 10.1816 0.1315 -2.07846 -0.831522 -0.422441 8.88178e-016 10.0835 -1.0008 -3.17125 -1.67259 -0.864896 2.22045e-016 9.1 -1.3734 -3.1713 -1.67577 -0.858224 1.77636e-015 16.6717 -2.5162 2.63648 1.82196 1.08219 -3.55271e-015 9.6179 1.685 -9.73517 5.34747 12.2165 0 17.8152 2.585 7.95139e-016 0 -0 3.0676 6.4095 9.2836 7.95139e-016 0 -0 -3.0676 6.4095 9.2835 7.95139e-016 0 -0 4.5704 10.946 -2.628 -7.28227 -0.884406 6.98841 10.5924 -0.5246 -2.2321 -59.6454 37.0414 5.25888 27.8415 -0.0001 0 -0.000194545 2.62047e-006 -14.8034 28.3288 0 0 15.8918 -9.49263 -5.78579 2.4661 -1.575 2.6824 6.13846 -1.1463 3.8272 3.2298 -1.8647 1.8647 0.739153 4.04323 7.89737 2.6526 -1.5315 1.5315 2.53742 -0.508497 1.5998 9.1093 -0.5171 2.2601 -1.59028e-015 3.18055e-015 3.18055e-015 3.6764 0 0 -7.95139e-016 3.18055e-015 -0 2.8831 0 0 7.95139e-016 0 3.18055e-015 9.5334 0 1.77636e-015 0.0159788 -1.25373e-006 -0.00192074 3.6982 0 0 -0.0159768 1.33039e-006 0.00192016 2.9509 0 0 2.38542e-015 -3.18055e-015 -3.18055e-015 9.1045 -0.0439 -1.8651 -1.59028e-015 3.18055e-015 3.18055e-015 3.154 0 0 -7.95139e-016 3.18055e-015 -0 2.9377 0 0 7.95139e-016 0 3.18055e-015 8.0778 -0.4887 -3.8061 0.507966 0.0179778 4.05448 3.6 0 0 -0.507955 0.0179837 -4.05448 2.1142 0 0 -8.74653e-015 0 -3.18055e-015 -4.57 10.9462 -2.628 6.06772 -0.889039 -9.93445 -10.5928 -0.5248 -2.2321 -11.8273 -37.1053 21.6545 -27.8415 1.42109e-014 0 -2.88076e-006 -8.912e-006 22.5726 -28.3288 2.84217e-014 0.0001 27.3021 -33.5883 20.0851 -8.0767 -0.4885 -3.806 -2.38455e-006 1.44748e-006 -0.00159502 -3.6 0 0.0001 2.63041e-005 -4.23131e-006 0.00158976 -2.1142 -1.42109e-014 0 -1.68083e-006 1.19084e-006 1.72413e-007 -9.1036 -0.0439 -1.8651 -1.5562e-006 -3.11693e-006 -5.12815e-007 -3.154 0 1.42109e-014 5.90794e-007 -5.85061e-007 2.42313e-006 -2.9377 0 -1.42109e-014 -5.90794e-007 5.85061e-007 -2.42313e-006 -9.5325 1.42109e-014 0 -1.5562e-006 -3.11693e-006 -5.12815e-007 -3.6982 -1.42109e-014 1.42109e-014 1.79173e-005 -4.78508e-006 1.00119e-005 -2.9509 0 -1.42109e-014 7.56683e-007 7.93831e-006 -0.00202655 -9.1083 -0.5168 2.2601 -1.5562e-006 -3.11693e-006 -5.12815e-007 -3.6764 1.42109e-014 0 5.90794e-007 -5.85061e-007 2.42313e-006 -2.8831 2.84217e-014 0 -5.90794e-007 5.85061e-007 -2.42313e-006 -2.4648 -1.5727 2.6826 -6.58323 -1.43648 -3.76369 -3.2298 -1.8647 1.8647 -0.219587 4.67208 -8.61486 -2.6526 -1.5314 1.5314 -2.09688 -1.27754 0.0886299 8.2078 -6.7517 -1.5996 6.31006 -8.19466 26.0572 -7.10543e-015 -44.3705 0.2846 2.82828 1.33129 -4.86851 0 -44.4279 -2.9822 -20.3098 42.6854 8.74337 0 -8.7287 10.7106 -3.97645 -34.1519 -2.07677 -8.2078 -6.7517 -1.5996 -15.2257 -7.17881 -6.67952 3.55271e-015 -44.3705 0.2862 -8.5739 13.1787 -8.16776 0 -44.4277 -2.9838 14.0933 -9.47985 0.387497 0 -8.7287 10.7106 8.82271e-007 -1.35979 1.40771e-006 
-11.0223 103.198 -0.0410953 12.762 5.6055 -1.52503 -1.77636e-015 10.1816 0.1315 -2.64305 -0.115605 -0.250376 8.88178e-016 10.0835 -1.0008 -5.00028 -0.231125 -0.526957 0 9.1 -1.3734 -5.00035 -0.2322 -0.525845 1.77636e-015 16.6717 -2.5162 2.70376 0.907764 1.2979 0 9.6179 1.685 -8.02669 0.141097 12.1159 3.55271e-015 17.8152 2.585 -5.96354e-016 1.59028e-015 3.18055e-015 3.0676 6.4095 9.2836 -5.96354e-016 1.59028e-015 3.18055e-015 -3.0676 6.4095 9.2835 -5.96354e-016 1.59028e-015 3.18055e-015 4.5704 10.946 -2.628 -6.92426 -0.788573 6.67684 10.5924 -0.5246 -2.2321 -55.6006 37.6624 5.82346 27.8415 -0.0001 1.42109e-014 -0.000214064 4.36268e-006 -17.9179 28.3288 7.10543e-015 0 16.0646 -9.04006 -5.46139 2.4661 -1.575 2.6824 6.13846 -1.1463 3.8272 3.2298 -1.8647 1.8647 0.739153 4.04323 7.89737 2.6526 -1.5315 1.5315 2.53742 -0.508497 1.5998 9.1093 -0.5171 2.2601 -2.38542e-015 9.54166e-015 -3.18055e-015 3.6764 -1.42109e-014 0 -4.77083e-015 3.18055e-015 -0 2.8831 -1.42109e-014 0 7.95139e-016 0 3.18055e-015 9.5334 0 0 0.0159788 -1.25373e-006 -0.00192074 3.6982 1.42109e-014 3.55271e-015 -0.0159768 1.33039e-006 0.00192016 2.9509 0 0 3.18055e-015 -9.54166e-015 -0 9.1045 -0.0439 -1.8651 -2.38542e-015 9.54166e-015 -3.18055e-015 3.154 1.42109e-014 0 -4.77083e-015 3.18055e-015 -0 2.9377 -1.42109e-014 0 7.95139e-016 0 3.18055e-015 8.0778 -0.4887 -3.8061 0.507966 0.0179778 4.05448 3.6 -1.42109e-014 3.55271e-015 -0.507955 0.0179837 -4.05448 2.1142 0 -3.55271e-015 7.95139e-016 3.18055e-015 3.18055e-015 -4.57 10.9462 -2.628 2.33177 -0.317725 -6.52834 -10.5928 -0.5248 -2.2321 -25.7484 -8.73337 7.46288 -27.8415 0 8.88178e-016 2.99431e-006 1.32232e-006 28.9506 -28.3288 1.42109e-014 0.0001 44.4044 -29.8769 23.9001 -8.0767 -0.4885 -3.806 5.63667e-007 3.54148e-007 -0.00159391 -3.6 5.68434e-014 0.0001 2.63041e-005 -4.23131e-006 0.00158976 -2.1142 0 1.06581e-014 -1.68083e-006 1.19084e-006 1.72413e-007 -9.1036 -0.0439 -1.8651 1.59028e-015 1.59028e-015 -0 -3.154 -2.84217e-014 0 5.90794e-007 -5.85061e-007 2.42313e-006 -2.9377 2.84217e-014 7.10543e-015 -5.90794e-007 5.85061e-007 -2.42313e-006 -9.5325 0 7.10543e-015 1.59028e-015 1.59028e-015 -0 -3.6982 -2.84217e-014 0 1.79173e-005 -4.78508e-006 1.00119e-005 -2.9509 -2.84217e-014 -1.42109e-014 7.56683e-007 7.93831e-006 -0.00202655 -9.1083 -0.5168 2.2601 1.59028e-015 1.59028e-015 -0 -3.6764 0 0 5.90794e-007 -5.85061e-007 2.42313e-006 -2.8831 -2.84217e-014 0 -5.90794e-007 5.85061e-007 -2.42313e-006 -2.4648 -1.5727 2.6826 -6.58322 -1.43647 -3.76368 -3.2298 -1.8647 1.8647 -0.219587 4.67208 -8.61486 -2.6526 -1.5314 1.5314 -2.09688 -1.27754 0.0886299 8.2078 -6.7517 -1.5996 5.1188 -7.19241 26.8604 0 -44.3705 0.2846 1.72103 0.603065 -2.65333 -3.55271e-015 -44.4279 -2.9822 -18.0242 46.1469 8.23869 0 -8.7287 10.7106 -5.221 -35.306 -2.83939 -8.2078 -6.7517 -1.5996 -16.4425 -7.71523 -6.25932 0 -44.3705 0.2862 -9.38069 13.3782 -7.60463 0 -44.4277 -2.9838 14.4093 -8.93222 0.392734 0 -8.7287 10.7106 2.59503e-007 -2.01037 -8.4629e-006 
